<?xml version="1.0" encoding="utf-8"?>
<!-- Generator: Adobe Illustrator 21.0.2, SVG Export Plug-In . SVG Version: 6.00 Build 0)  -->
<svg version="1.1" id="Layer_1" xmlns="http://www.w3.org/2000/svg" xmlns:xlink="http://www.w3.org/1999/xlink" x="0px" y="0px"
	 viewBox="0 0 26 27" style="enable-background:new 0 0 26 27;" xml:space="preserve">
<style type="text/css">
	.st0{fill:#3E3E3D;}
</style>
<g>
	<path class="st0" d="M7.7,17.7l14.5,0c1.6,0,3-1.3,3-3l0-6.1c0,0,0,0,0,0c0,0,0,0,0,0c0,0,0,0,0,0c0,0,0,0,0,0s0,0,0,0c0,0,0,0,0,0
		c0,0,0,0,0,0c0,0,0,0,0,0c0,0,0,0,0,0c0,0,0,0,0,0c0,0,0,0,0,0c0,0,0,0,0,0s0,0,0,0c0,0,0,0,0,0c0,0,0,0,0,0c0,0,0,0,0,0
		c0,0,0,0,0,0c0,0,0,0,0,0c0,0,0,0,0,0c0,0,0,0,0,0c0,0,0,0,0,0s0,0,0,0c0,0,0,0,0,0s0,0,0,0s0,0,0,0s0,0,0,0c0,0,0,0,0,0
		c0,0,0,0,0,0c0,0,0,0,0,0c0,0,0,0,0,0L6.2,5.3l0-2.6c0,0,0-0.1,0-0.1c0,0,0,0,0,0c0,0,0,0,0,0c0,0,0,0,0,0c0,0,0,0,0,0c0,0,0,0,0,0
		c0,0,0,0,0,0c0,0,0,0,0,0c0,0,0,0,0,0c0,0,0,0,0,0c0,0,0,0,0,0c0,0,0,0,0,0c0,0,0,0,0,0c0,0,0,0,0,0c0,0,0,0,0,0c0,0,0,0,0,0
		c0,0,0,0,0,0c0,0,0,0,0,0c0,0,0,0,0,0c0,0,0,0,0,0c0,0,0,0,0,0c0,0,0,0-0.1,0l-4-1.7c-0.4-0.2-0.8,0-1,0.4s0,0.8,0.4,1l3.5,1.5
		l0,3.3l0,0.5l0,4l0,3.6l0,4.5c0,1.5,1.1,2.8,2.6,3c-0.3,0.4-0.4,1-0.4,1.5c0,1.6,1.3,2.9,2.9,2.9s2.9-1.3,2.9-2.9
		c0-0.5-0.1-1.1-0.4-1.5l6.6,0c-0.3,0.4-0.4,0.9-0.4,1.5c0,1.6,1.3,2.9,2.9,2.9c1.6,0,2.9-1.3,2.9-2.9c0-1.6-1.3-2.9-2.9-2.9
		l-13.8,0c-0.8,0-1.5-0.7-1.5-1.5l0-2C6.6,17.5,7.2,17.7,7.7,17.7z M11.4,23.7c0,0.8-0.7,1.5-1.5,1.5c-0.8,0-1.5-0.7-1.5-1.5
		c0-0.8,0.7-1.5,1.5-1.5C10.7,22.2,11.4,22.9,11.4,23.7z M23,23.7c0,0.8-0.7,1.5-1.5,1.5c-0.8,0-1.5-0.7-1.5-1.5
		c0-0.8,0.7-1.5,1.5-1.5C22.4,22.2,23,22.9,23,23.7z M22.2,16.2l-14.5,0c-0.8,0-1.5-0.7-1.5-1.5l0-3.6l0-4l0-0.3l17.6,2.4l0,5.5
		C23.8,15.5,23.1,16.2,22.2,16.2z"/>
</g>
</svg>
