<?xml version="1.0" encoding="iso-8859-1"?>
<!-- Generator: Adobe Illustrator 19.0.0, SVG Export Plug-In . SVG Version: 6.00 Build 0)  -->
<svg version="1.1" id="Layer_1" xmlns="http://www.w3.org/2000/svg" xmlns:xlink="http://www.w3.org/1999/xlink" x="0px" y="0px"
	 viewBox="0 0 511.997 511.997" style="enable-background:new 0 0 511.997 511.997;" xml:space="preserve">
<g>
	<path style="fill:#E6E6E6;" d="M419.112,210.52c0,3.716,3.014,6.73,6.73,6.73c3.716,0,6.73-3.014,6.73-6.73v-48.712h-76.499
		v-24.982c0-3.716-3.014-6.73-6.73-6.73c-3.716,0-6.73,3.014-6.73,6.73v24.982h-159.19v-24.982c0-3.716-3.014-6.73-6.73-6.73
		s-6.73,3.014-6.73,6.73v24.982H79.427v48.712c0,3.716,3.014,6.73,6.73,6.73c3.716,0,6.73-3.014,6.73-6.73v-35.252h156.384v35.252
		c0,3.716,3.014,6.73,6.73,6.73s6.73-3.014,6.73-6.73v-35.252h156.383v35.252H419.112z"/>
	<path style="fill:#E6E6E6;" d="M262.73,309.668c0-3.716-3.014-6.73-6.73-6.73s-6.73,3.014-6.73,6.73v33.173h-70.91v48.712
		c0,3.716,3.014,6.73,6.73,6.73c3.716,0,6.73-3.014,6.73-6.73V356.3h128.359v35.252c0,3.716,3.014,6.73,6.73,6.73
		c3.716,0,6.73-3.014,6.73-6.73V342.84h-70.909v-33.173H262.73z"/>
	<path style="fill:#E6E6E6;" d="M432.572,342.84v-33.173c0-3.716-3.014-6.73-6.73-6.73c-3.716,0-6.73,3.014-6.73,6.73V356.3h41.395
		v35.252c0,3.716,3.014,6.73,6.73,6.73c3.716,0,6.73-3.014,6.73-6.73V342.84H432.572z"/>
	<path style="fill:#E6E6E6;" d="M86.157,302.938c-3.716,0-6.73,3.014-6.73,6.73v33.173H38.03v48.712c0,3.716,3.014,6.73,6.73,6.73
		c3.716,0,6.73-3.014,6.73-6.73V356.3h41.395v-46.632C92.887,305.952,89.873,302.938,86.157,302.938z"/>
</g>
<rect x="124.401" y="21.297" style="fill:#E5F8F9;" width="104.313" height="115.529"/>
<path style="fill:#62DCD2;" d="M203.888,136.826c0.101-0.92,0.146-1.862,0.146-2.804c0-15.176-12.304-27.48-27.48-27.48
	c-15.176,0-27.48,12.304-27.48,27.48c0,0.942,0.045,1.884,0.146,2.804"/>
<circle style="fill:#F7CBA4;" cx="176.558" cy="79.064" r="27.48"/>
<rect x="140.822" y="391.553" style="fill:#E5F8F9;" width="89.518" height="99.142"/>
<path style="fill:#FD5D65;" d="M209.045,490.7c0.086-0.79,0.126-1.598,0.126-2.407c0-13.025-10.56-23.584-23.584-23.584
	c-13.023,0-23.584,10.56-23.584,23.584c0,0.809,0.038,1.617,0.126,2.407"/>
<circle style="fill:#F7CBA4;" cx="185.587" cy="441.13" r="23.588"/>
<rect x="281.656" y="391.553" style="fill:#E5F8F9;" width="89.518" height="99.142"/>
<path style="fill:#62DCD2;" d="M349.871,490.7c0.086-0.79,0.126-1.598,0.126-2.407c0-13.025-10.56-23.584-23.584-23.584
	c-13.025,0-23.584,10.56-23.584,23.584c0,0.809,0.038,1.617,0.126,2.407"/>
<circle style="fill:#F7CBA4;" cx="326.409" cy="441.13" r="23.588"/>
<rect x="422.478" y="391.553" style="fill:#E5F8F9;" width="89.518" height="99.142"/>
<path style="fill:#F4AAB6;" d="M490.697,490.7c0.086-0.79,0.126-1.598,0.126-2.407c0-13.025-10.56-23.584-23.584-23.584
	c-13.025,0-23.584,10.56-23.584,23.584c0,0.809,0.038,1.617,0.126,2.407"/>
<circle style="fill:#F7CBA4;" cx="467.243" cy="441.13" r="23.588"/>
<rect y="391.553" style="fill:#E5F8F9;" width="89.518" height="99.142"/>
<path style="fill:#FEC95B;" d="M68.219,490.7c0.086-0.79,0.126-1.598,0.126-2.407c0-13.025-10.56-23.584-23.584-23.584
	s-23.584,10.56-23.584,23.584c0,0.809,0.038,1.617,0.126,2.407"/>
<circle style="fill:#F7CBA4;" cx="44.761" cy="441.13" r="23.588"/>
<rect x="41.395" y="210.52" style="fill:#E5F8F9;" width="89.518" height="99.142"/>
<path style="fill:#B09ADC;" d="M109.615,309.668c0.086-0.79,0.126-1.598,0.126-2.407c0-13.025-10.56-23.584-23.584-23.584
	s-23.584,10.56-23.584,23.584c0,0.809,0.038,1.617,0.126,2.407"/>
<circle style="fill:#F7CBA4;" cx="86.153" cy="260.097" r="23.588"/>
<rect x="211.239" y="210.52" style="fill:#E5F8F9;" width="89.518" height="99.142"/>
<path style="fill:#FEC95B;" d="M279.459,309.668c0.086-0.79,0.126-1.598,0.126-2.407c0-13.025-10.56-23.584-23.584-23.584
	s-23.584,10.56-23.584,23.584c0,0.809,0.038,1.617,0.126,2.407"/>
<circle style="fill:#F7CBA4;" cx="256.004" cy="260.097" r="23.588"/>
<rect x="381.078" y="210.52" style="fill:#E5F8F9;" width="89.518" height="99.142"/>
<path style="fill:#415E72;" d="M449.301,309.668c0.086-0.79,0.126-1.598,0.126-2.407c0-13.025-10.56-23.584-23.584-23.584
	c-13.025,0-23.584,10.56-23.584,23.584c0,0.809,0.038,1.617,0.126,2.407"/>
<circle style="fill:#F7CBA4;" cx="425.843" cy="260.097" r="23.588"/>
<rect x="297.191" y="21.297" style="fill:#E5F8F9;" width="104.313" height="115.529"/>
<path style="fill:#F4AAB6;" d="M376.677,136.826c0.101-0.92,0.146-1.862,0.146-2.804c0-15.176-12.304-27.48-27.48-27.48
	c-15.176,0-27.48,12.304-27.48,27.48c0,0.942,0.045,1.884,0.146,2.804"/>
<circle style="fill:#F7CBA4;" cx="349.347" cy="79.064" r="27.48"/>
<g>
</g>
<g>
</g>
<g>
</g>
<g>
</g>
<g>
</g>
<g>
</g>
<g>
</g>
<g>
</g>
<g>
</g>
<g>
</g>
<g>
</g>
<g>
</g>
<g>
</g>
<g>
</g>
<g>
</g>
</svg>
