<?xml version="1.0" encoding="utf-8"?>
<!-- Generator: Adobe Illustrator 21.0.2, SVG Export Plug-In . SVG Version: 6.00 Build 0)  -->
<svg version="1.1" id="Layer_1" xmlns="http://www.w3.org/2000/svg" xmlns:xlink="http://www.w3.org/1999/xlink" x="0px" y="0px"
	 viewBox="0 0 26 26" style="enable-background:new 0 0 26 26;" xml:space="preserve">
<style type="text/css">
	.st0{fill:#3E3E3D;}
</style>
<g>
	<path class="st0" d="M23.4,22.2l-6.5-6.5c1.2-1.4,1.9-3.2,1.9-5.2c0-4.5-3.7-8.2-8.2-8.2C6,2.4,2.4,6,2.4,10.6s3.7,8.2,8.2,8.2
		c2,0,3.8-0.7,5.2-1.9l6.5,6.5c0.3,0.3,0.8,0.3,1.1,0C23.7,23.1,23.7,22.6,23.4,22.2z M10.6,17.2c-3.6,0-6.6-3-6.6-6.6S6.9,4,10.6,4
		c3.6,0,6.6,3,6.6,6.6S14.2,17.2,10.6,17.2z"/>
</g>
</svg>
